<svg width="14" height="14" viewBox="0 0 14 14" fill="none" xmlns="http://www.w3.org/2000/svg">
<path d="M13.7917 2.87988C13.3047 3.09571 12.7814 3.24155 12.2313 3.30746C12.7989 2.96784 13.2235 2.43332 13.426 1.80363C12.8927 2.12037 12.3091 2.34333 11.7005 2.4628C11.2912 2.0258 10.7491 1.73615 10.1583 1.63882C9.56758 1.54149 8.96121 1.64193 8.43338 1.92453C7.90554 2.20713 7.48577 2.65609 7.23924 3.20171C6.99271 3.74732 6.93322 4.35907 7.06999 4.94196C5.98947 4.88771 4.93244 4.60687 3.96748 4.11766C3.00253 3.62845 2.15123 2.94181 1.46882 2.1023C1.23549 2.5048 1.10132 2.97146 1.10132 3.46846C1.10106 3.91588 1.21124 4.35644 1.42208 4.75106C1.63293 5.14568 1.93791 5.48215 2.30999 5.73063C1.87848 5.7169 1.4565 5.6003 1.07915 5.39055V5.42555C1.07911 6.05306 1.29617 6.66127 1.69351 7.14696C2.09085 7.63266 2.64399 7.96592 3.25907 8.09021C2.85878 8.19855 2.4391 8.2145 2.03174 8.13688C2.20528 8.67682 2.54332 9.14898 2.99853 9.48725C3.45375 9.82553 4.00335 10.013 4.5704 10.0234C3.60781 10.779 2.419 11.1889 1.19524 11.1871C0.978459 11.1872 0.761864 11.1745 0.54657 11.1492C1.78876 11.9479 3.23477 12.3718 4.71157 12.3701C9.71074 12.3701 12.4437 8.22963 12.4437 4.63863C12.4437 4.52196 12.4407 4.40413 12.4355 4.28746C12.9671 3.90303 13.4259 3.42699 13.7906 2.88163L13.7917 2.87988V2.87988Z" fill="#1D4ED8"/>
</svg>
