<svg width="90" height="30" viewBox="0 0 90 30" fill="none" xmlns="http://www.w3.org/2000/svg">
<circle cx="4.5" cy="8.75256" r="4.5" fill="#93C5FD"/>
<path fill-rule="evenodd" clip-rule="evenodd" d="M4.64101 16.0039C8.32291 16.0039 11.3077 13.0191 11.3077 9.33722C11.3077 8.83238 11.2516 8.34065 11.1452 7.86792C15.5732 8.41898 19 12.1959 19 16.7731C19 21.7295 14.982 25.7475 10.0256 25.7475C5.06923 25.7475 1.05127 21.7295 1.05127 16.7731C1.05127 16.1864 1.10758 15.6128 1.21509 15.0574C2.2163 15.6584 3.38831 16.0039 4.64101 16.0039Z" fill="#1D4ED8"/>
<path d="M30.892 7.45455L34.4077 18.5057H34.5426L38.0653 7.45455H41.4744L36.4602 22H32.4972L27.4759 7.45455H30.892ZM46.9094 22.2131C45.7873 22.2131 44.8214 21.9858 44.0117 21.5312C43.2068 21.072 42.5865 20.4233 42.1509 19.5852C41.7153 18.7424 41.4975 17.7457 41.4975 16.5952C41.4975 15.473 41.7153 14.4882 42.1509 13.6406C42.5865 12.7931 43.1997 12.1326 43.9904 11.6591C44.7859 11.1856 45.7186 10.9489 46.7887 10.9489C47.5084 10.9489 48.1784 11.0649 48.7987 11.2969C49.4237 11.5241 49.9682 11.8674 50.4322 12.3267C50.9009 12.786 51.2655 13.3636 51.5259 14.0597C51.7863 14.7509 51.9165 15.5606 51.9165 16.4886V17.3196H42.7049V15.4446H49.0685C49.0685 15.009 48.9738 14.6231 48.7844 14.2869C48.5951 13.9508 48.3323 13.688 47.9961 13.4986C47.6647 13.3045 47.2788 13.2074 46.8384 13.2074C46.3791 13.2074 45.9719 13.3139 45.6168 13.527C45.2665 13.7353 44.9918 14.017 44.793 14.3722C44.5941 14.7225 44.4923 15.1132 44.4876 15.544V17.3267C44.4876 17.8665 44.587 18.3329 44.7859 18.7259C44.9895 19.1188 45.2759 19.4219 45.6452 19.6349C46.0146 19.848 46.4525 19.9545 46.9592 19.9545C47.2953 19.9545 47.6031 19.9072 47.8825 19.8125C48.1618 19.7178 48.4009 19.5758 48.5998 19.3864C48.7987 19.197 48.9502 18.965 49.0543 18.6903L51.8526 18.875C51.7106 19.5473 51.4194 20.1345 50.979 20.6364C50.5434 21.1335 49.98 21.5218 49.2887 21.8011C48.6022 22.0758 47.8091 22.2131 46.9094 22.2131ZM56.9165 7.45455V22H53.891V7.45455H56.9165ZM64.3118 22.2131C63.1896 22.2131 62.2237 21.9858 61.4141 21.5312C60.6091 21.072 59.9889 20.4233 59.5533 19.5852C59.1177 18.7424 58.8999 17.7457 58.8999 16.5952C58.8999 15.473 59.1177 14.4882 59.5533 13.6406C59.9889 12.7931 60.602 12.1326 61.3928 11.6591C62.1882 11.1856 63.121 10.9489 64.1911 10.9489C64.9107 10.9489 65.5807 11.0649 66.201 11.2969C66.826 11.5241 67.3705 11.8674 67.8345 12.3267C68.3033 12.786 68.6679 13.3636 68.9283 14.0597C69.1887 14.7509 69.3189 15.5606 69.3189 16.4886V17.3196H60.1072V15.4446H66.4709C66.4709 15.009 66.3762 14.6231 66.1868 14.2869C65.9974 13.9508 65.7346 13.688 65.3984 13.4986C65.067 13.3045 64.6811 13.2074 64.2408 13.2074C63.7815 13.2074 63.3743 13.3139 63.0192 13.527C62.6688 13.7353 62.3942 14.017 62.1953 14.3722C61.9964 14.7225 61.8946 15.1132 61.8899 15.544V17.3267C61.8899 17.8665 61.9893 18.3329 62.1882 18.7259C62.3918 19.1188 62.6783 19.4219 63.0476 19.6349C63.4169 19.848 63.8549 19.9545 64.3615 19.9545C64.6977 19.9545 65.0054 19.9072 65.2848 19.8125C65.5642 19.7178 65.8033 19.5758 66.0021 19.3864C66.201 19.197 66.3525 18.965 66.4567 18.6903L69.255 18.875C69.1129 19.5473 68.8217 20.1345 68.3814 20.6364C67.9458 21.1335 67.3823 21.5218 66.6911 21.8011C66.0045 22.0758 65.2114 22.2131 64.3118 22.2131ZM77.0959 11.0909V13.3636H70.5263V11.0909H77.0959ZM72.0178 8.47727H75.0433V18.6477C75.0433 18.9271 75.0859 19.1449 75.1712 19.3011C75.2564 19.4527 75.3748 19.5592 75.5263 19.6207C75.6825 19.6823 75.8625 19.7131 76.0661 19.7131C76.2081 19.7131 76.3501 19.7012 76.4922 19.6776C76.6342 19.6491 76.7431 19.6278 76.8189 19.6136L77.2947 21.8651C77.1432 21.9124 76.9302 21.9669 76.6555 22.0284C76.3809 22.0947 76.0471 22.1349 75.6541 22.1491C74.925 22.1776 74.2857 22.0805 73.7365 21.858C73.192 21.6354 72.7682 21.2898 72.4652 20.821C72.1622 20.3523 72.013 19.7604 72.0178 19.0455V8.47727ZM82.1776 22.206C81.4815 22.206 80.8613 22.0852 80.3168 21.8438C79.7723 21.5975 79.3414 21.2353 79.0241 20.7571C78.7116 20.2741 78.5554 19.6728 78.5554 18.9531C78.5554 18.3471 78.6667 17.8381 78.8892 17.4261C79.1117 17.0142 79.4148 16.6828 79.7983 16.4318C80.1818 16.1809 80.6174 15.9915 81.1051 15.8636C81.5975 15.7358 82.1136 15.6458 82.6534 15.5938C83.2879 15.5275 83.7992 15.4659 84.1875 15.4091C84.5758 15.3475 84.8575 15.2576 85.0327 15.1392C85.2079 15.0208 85.2955 14.8456 85.2955 14.6136V14.571C85.2955 14.1212 85.1534 13.7732 84.8693 13.527C84.59 13.2808 84.1922 13.1577 83.6761 13.1577C83.1316 13.1577 82.6984 13.2784 82.3764 13.5199C82.0545 13.7566 81.8414 14.0549 81.7372 14.4148L78.9389 14.1875C79.081 13.5246 79.3603 12.9517 79.777 12.4688C80.1937 11.9811 80.7311 11.607 81.3892 11.3466C82.0521 11.0814 82.8191 10.9489 83.6903 10.9489C84.2964 10.9489 84.8764 11.0199 85.4304 11.1619C85.9891 11.304 86.4839 11.5241 86.9148 11.8224C87.3504 12.1207 87.6937 12.5043 87.9446 12.973C88.1955 13.437 88.321 13.9934 88.321 14.642V22H85.4517V20.4872H85.3665C85.1913 20.8281 84.9569 21.1288 84.6634 21.3892C84.3698 21.6449 84.017 21.8461 83.6051 21.9929C83.1932 22.1349 82.7173 22.206 82.1776 22.206ZM83.044 20.1179C83.4891 20.1179 83.8821 20.0303 84.223 19.8551C84.5639 19.6752 84.8314 19.4337 85.0256 19.1307C85.2197 18.8277 85.3168 18.4844 85.3168 18.1009V16.9432C85.2221 17.0047 85.0919 17.0616 84.9261 17.1136C84.7652 17.161 84.5829 17.206 84.3793 17.2486C84.1757 17.2865 83.9721 17.322 83.7685 17.3551C83.5649 17.3835 83.3802 17.4096 83.2145 17.4332C82.8594 17.4853 82.5492 17.5682 82.2841 17.6818C82.0189 17.7955 81.813 17.9493 81.6662 18.1435C81.5194 18.3329 81.446 18.5696 81.446 18.8537C81.446 19.2656 81.5952 19.5805 81.8935 19.7983C82.1965 20.0114 82.58 20.1179 83.044 20.1179Z" fill="black"/>
</svg>
